<?xml version="1.0" encoding="UTF-8" standalone="no"?>
<!DOCTYPE svg PUBLIC "-//W3C//DTD SVG 1.1//EN" "http://www.w3.org/Graphics/SVG/1.1/DTD/svg11.dtd">
<!-- Generated by Microsoft Visio, SVG Export concept_diagram.svg Page-1 -->
<svg xmlns="http://www.w3.org/2000/svg" xmlns:xlink="http://www.w3.org/1999/xlink" xmlns:ev="http://www.w3.org/2001/xml-events"
		xmlns:v="http://schemas.microsoft.com/visio/2003/SVGExtensions/" width="7.20032in" height="4.27083in"
		viewBox="0 0 518.423 307.5" xml:space="preserve" color-interpolation-filters="sRGB" class="st10">
	<v:documentProperties v:langID="1033" v:viewMarkup="false">
		<v:userDefs>
			<v:ud v:nameU="msvSubprocessMaster" v:prompt="" v:val="VT4(Rectangle)"/>
			<v:ud v:nameU="msvNoAutoConnect" v:val="VT0(1):26"/>
		</v:userDefs>
	</v:documentProperties>

	<style type="text/css">
	<![CDATA[
		.st1 {fill:url(#grad0-4);stroke:#4f87bb;stroke-width:0.75}
		.st2 {fill:#4f87bb;font-family:Calibri;font-size:1.5em}
		.st3 {font-size:1em}
		.st4 {marker-end:url(#mrkr5-33);marker-start:url(#mrkr5-31);stroke:#5b9bd5;stroke-linecap:round;stroke-linejoin:round;stroke-width:1}
		.st5 {fill:#5b9bd5;fill-opacity:1;stroke:#5b9bd5;stroke-opacity:1;stroke-width:0.28409090909091}
		.st6 {marker-end:url(#mrkr5-42);marker-start:url(#mrkr5-40);stroke:#5b9bd5;stroke-linecap:round;stroke-linejoin:round;stroke-width:1}
		.st7 {marker-end:url(#mrkr5-51);marker-start:url(#mrkr5-49);stroke:#4672c4;stroke-linecap:round;stroke-linejoin:round;stroke-width:1}
		.st8 {fill:#4672c4;fill-opacity:1;stroke:#4672c4;stroke-opacity:1;stroke-width:0.28409090909091}
		.st9 {marker-end:url(#mrkr5-42);marker-start:url(#mrkr5-31);stroke:#5b9bd5;stroke-linecap:round;stroke-linejoin:round;stroke-width:1}
		.st10 {fill:none;fill-rule:evenodd;font-size:12px;overflow:visible;stroke-linecap:square;stroke-miterlimit:3}
	]]>
	</style>

	<defs id="Patterns_And_Gradients">
		<linearGradient id="grad0-4" x1="0" y1="0" x2="1" y2="0" gradientTransform="rotate(60 0.5 0.5)">
			<stop offset="0" stop-color="#e9eff7" stop-opacity="1"/>
			<stop offset="0.24" stop-color="#f4f7fb" stop-opacity="1"/>
			<stop offset="0.54" stop-color="#feffff" stop-opacity="1"/>
		</linearGradient>
	</defs>
	<defs id="Markers">
		<g id="lend5">
			<path d="M 2 1 L 0 0 L 1.98117 -0.993387 C 1.67173 -0.364515 1.67301 0.372641 1.98465 1.00043 " style="stroke:none"/>
		</g>
		<marker id="mrkr5-31" class="st5" v:arrowType="5" v:arrowSize="2" v:setback="5.8" refX="5.8" orient="auto"
				markerUnits="strokeWidth" overflow="visible">
			<use xlink:href="#lend5" transform="scale(3.52) "/>
		</marker>
		<marker id="mrkr5-33" class="st5" v:arrowType="5" v:arrowSize="2" v:setback="5.8" refX="-5.8" orient="auto"
				markerUnits="strokeWidth" overflow="visible">
			<use xlink:href="#lend5" transform="scale(-3.52,-3.52) "/>
		</marker>
		<marker id="mrkr5-40" class="st5" v:arrowType="5" v:arrowSize="2" v:setback="6.16" refX="6.16" orient="auto"
				markerUnits="strokeWidth" overflow="visible">
			<use xlink:href="#lend5" transform="scale(3.52) "/>
		</marker>
		<marker id="mrkr5-42" class="st5" v:arrowType="5" v:arrowSize="2" v:setback="6.16" refX="-6.16" orient="auto"
				markerUnits="strokeWidth" overflow="visible">
			<use xlink:href="#lend5" transform="scale(-3.52,-3.52) "/>
		</marker>
		<marker id="mrkr5-49" class="st8" v:arrowType="5" v:arrowSize="2" v:setback="5.8" refX="5.8" orient="auto"
				markerUnits="strokeWidth" overflow="visible">
			<use xlink:href="#lend5" transform="scale(3.52) "/>
		</marker>
		<marker id="mrkr5-51" class="st8" v:arrowType="5" v:arrowSize="2" v:setback="5.8" refX="-5.8" orient="auto"
				markerUnits="strokeWidth" overflow="visible">
			<use xlink:href="#lend5" transform="scale(-3.52,-3.52) "/>
		</marker>
	</defs>
	<g v:mID="0" v:index="1" v:groupContext="foregroundPage">
		<v:userDefs>
			<v:ud v:nameU="msvThemeOrder" v:val="VT0(0):26"/>
		</v:userDefs>
		<title>Page-1</title>
		<v:pageProperties v:drawingScale="1" v:pageScale="1" v:drawingUnits="0" v:shadowOffsetX="9" v:shadowOffsetY="-9"/>
		<v:layer v:name="Connector" v:index="0"/>
		<g id="shape13-1" v:mID="13" v:groupContext="shape" transform="translate(205.211,-117.75)">
			<title>Round Corner Rectangle.13</title>
			<desc>Firebase</desc>
			<v:userDefs>
				<v:ud v:nameU="CTypeTopLeftSnip" v:prompt="" v:val="VT0(0):5"/>
				<v:ud v:nameU="CTypeTopRightSnip" v:prompt="" v:val="VT0(0):5"/>
				<v:ud v:nameU="CTypeBotLeftSnip" v:prompt="" v:val="VT0(0):5"/>
				<v:ud v:nameU="CTypeBotRightSnip" v:prompt="" v:val="VT0(0):5"/>
				<v:ud v:nameU="CornerLockHoriz" v:prompt="" v:val="VT0(0):5"/>
				<v:ud v:nameU="CornerLockVert" v:prompt="" v:val="VT0(0):5"/>
				<v:ud v:nameU="CornerLockDiag" v:prompt="" v:val="VT0(0):5"/>
				<v:ud v:nameU="TopLeftOffset" v:prompt="" v:val="VT0(0.15):1"/>
				<v:ud v:nameU="TopRightOffset" v:prompt="" v:val="VT0(0.15):1"/>
				<v:ud v:nameU="BotLeftOffset" v:prompt="" v:val="VT0(0.15):1"/>
				<v:ud v:nameU="BotRightOffset" v:prompt="" v:val="VT0(0.15):1"/>
				<v:ud v:nameU="visVersion" v:prompt="" v:val="VT0(15):26"/>
			</v:userDefs>
			<v:textBlock v:margins="rect(4,4,4,4)"/>
			<v:textRect cx="54" cy="271.5" width="108" height="72"/>
			<path d="M10.8 307.5 L97.2 307.5 A10.7998 10.7998 -180 0 0 108 296.7 L108 246.3 A10.7998 10.7998 -180 0 0 97.2 235.5
						 L10.8 235.5 A10.7998 10.7998 -180 0 0 0 246.3 L0 296.7 A10.7998 10.7998 -180 0 0 10.8 307.5 Z" class="st1"/>
			<text x="23.15" y="276.9" class="st2" v:langID="1033"><v:paragraph v:horizAlign="1"/><v:tabList/>Firebase</text>		</g>
		<g id="shape14-6" v:mID="14" v:groupContext="shape" transform="translate(391.673,-117.75)">
			<title>Round Corner Rectangle.14</title>
			<desc>Widget</desc>
			<v:userDefs>
				<v:ud v:nameU="CTypeTopLeftSnip" v:prompt="" v:val="VT0(0):5"/>
				<v:ud v:nameU="CTypeTopRightSnip" v:prompt="" v:val="VT0(0):5"/>
				<v:ud v:nameU="CTypeBotLeftSnip" v:prompt="" v:val="VT0(0):5"/>
				<v:ud v:nameU="CTypeBotRightSnip" v:prompt="" v:val="VT0(0):5"/>
				<v:ud v:nameU="CornerLockHoriz" v:prompt="" v:val="VT0(0):5"/>
				<v:ud v:nameU="CornerLockVert" v:prompt="" v:val="VT0(0):5"/>
				<v:ud v:nameU="CornerLockDiag" v:prompt="" v:val="VT0(0):5"/>
				<v:ud v:nameU="TopLeftOffset" v:prompt="" v:val="VT0(0.15):1"/>
				<v:ud v:nameU="TopRightOffset" v:prompt="" v:val="VT0(0.15):1"/>
				<v:ud v:nameU="BotLeftOffset" v:prompt="" v:val="VT0(0.15):1"/>
				<v:ud v:nameU="BotRightOffset" v:prompt="" v:val="VT0(0.15):1"/>
				<v:ud v:nameU="visVersion" v:prompt="" v:val="VT0(15):26"/>
			</v:userDefs>
			<v:textBlock v:margins="rect(4,4,4,4)"/>
			<v:textRect cx="54" cy="271.5" width="108" height="72"/>
			<path d="M10.8 307.5 L97.2 307.5 A10.7998 10.7998 -180 0 0 108 296.7 L108 246.3 A10.7998 10.7998 -180 0 0 97.2 235.5
						 L10.8 235.5 A10.7998 10.7998 -180 0 0 0 246.3 L0 296.7 A10.7998 10.7998 -180 0 0 10.8 307.5 Z" class="st1"/>
			<text x="27.47" y="276.9" class="st2" v:langID="1033"><v:paragraph v:horizAlign="1"/><v:tabList/>Widget</text>		</g>
		<g id="shape12-10" v:mID="12" v:groupContext="shape" transform="translate(18.7498,-18.75)">
			<title>Round Corner Rectangle.12</title>
			<desc>Web Interface</desc>
			<v:userDefs>
				<v:ud v:nameU="CTypeTopLeftSnip" v:prompt="" v:val="VT0(0):5"/>
				<v:ud v:nameU="CTypeTopRightSnip" v:prompt="" v:val="VT0(0):5"/>
				<v:ud v:nameU="CTypeBotLeftSnip" v:prompt="" v:val="VT0(0):5"/>
				<v:ud v:nameU="CTypeBotRightSnip" v:prompt="" v:val="VT0(0):5"/>
				<v:ud v:nameU="CornerLockHoriz" v:prompt="" v:val="VT0(0):5"/>
				<v:ud v:nameU="CornerLockVert" v:prompt="" v:val="VT0(0):5"/>
				<v:ud v:nameU="CornerLockDiag" v:prompt="" v:val="VT0(0):5"/>
				<v:ud v:nameU="TopLeftOffset" v:prompt="" v:val="VT0(0.15):1"/>
				<v:ud v:nameU="TopRightOffset" v:prompt="" v:val="VT0(0.15):1"/>
				<v:ud v:nameU="BotLeftOffset" v:prompt="" v:val="VT0(0.15):1"/>
				<v:ud v:nameU="BotRightOffset" v:prompt="" v:val="VT0(0.15):1"/>
				<v:ud v:nameU="visVersion" v:prompt="" v:val="VT0(15):26"/>
			</v:userDefs>
			<v:textBlock v:margins="rect(4,4,4,4)"/>
			<v:textRect cx="54" cy="271.5" width="108" height="72"/>
			<path d="M10.8 307.5 L97.2 307.5 A10.7998 10.7998 -180 0 0 108 296.7 L108 246.3 A10.7998 10.7998 -180 0 0 97.2 235.5
						 L10.8 235.5 A10.7998 10.7998 -180 0 0 0 246.3 L0 296.7 A10.7998 10.7998 -180 0 0 10.8 307.5 Z" class="st1"/>
			<text x="36.79" y="266.1" class="st2" v:langID="1033"><v:paragraph v:horizAlign="1"/><v:tabList/>Web <tspan x="21.03"
						dy="1.2em" class="st3">Interface</tspan></text>		</g>
		<g id="shape11-15" v:mID="11" v:groupContext="shape" transform="translate(18.7498,-117.75)">
			<title>Round Corner Rectangle.11</title>
			<desc>Homebridge Platform</desc>
			<v:userDefs>
				<v:ud v:nameU="CTypeTopLeftSnip" v:prompt="" v:val="VT0(0):5"/>
				<v:ud v:nameU="CTypeTopRightSnip" v:prompt="" v:val="VT0(0):5"/>
				<v:ud v:nameU="CTypeBotLeftSnip" v:prompt="" v:val="VT0(0):5"/>
				<v:ud v:nameU="CTypeBotRightSnip" v:prompt="" v:val="VT0(0):5"/>
				<v:ud v:nameU="CornerLockHoriz" v:prompt="" v:val="VT0(0):5"/>
				<v:ud v:nameU="CornerLockVert" v:prompt="" v:val="VT0(0):5"/>
				<v:ud v:nameU="CornerLockDiag" v:prompt="" v:val="VT0(0):5"/>
				<v:ud v:nameU="TopLeftOffset" v:prompt="" v:val="VT0(0.15):1"/>
				<v:ud v:nameU="TopRightOffset" v:prompt="" v:val="VT0(0.15):1"/>
				<v:ud v:nameU="BotLeftOffset" v:prompt="" v:val="VT0(0.15):1"/>
				<v:ud v:nameU="BotRightOffset" v:prompt="" v:val="VT0(0.15):1"/>
				<v:ud v:nameU="visVersion" v:prompt="" v:val="VT0(15):26"/>
			</v:userDefs>
			<v:textBlock v:margins="rect(4,4,4,4)"/>
			<v:textRect cx="54" cy="271.5" width="108" height="72"/>
			<path d="M10.8 307.5 L97.2 307.5 A10.7998 10.7998 -180 0 0 108 296.7 L108 246.3 A10.7998 10.7998 -180 0 0 97.2 235.5
						 L10.8 235.5 A10.7998 10.7998 -180 0 0 0 246.3 L0 296.7 A10.7998 10.7998 -180 0 0 10.8 307.5 Z" class="st1"/>
			<text x="8.6" y="266.1" class="st2" v:langID="1033"><v:paragraph v:horizAlign="1"/><v:tabList/>Homebridge<v:newlineChar/><tspan
						x="22.14" dy="1.2em" class="st3">Platform</tspan></text>		</g>
		<g id="shape10-20" v:mID="10" v:groupContext="shape" transform="translate(18.7498,-216.75)">
			<title>Round Corner Rectangle</title>
			<desc>Homebridge Accessory</desc>
			<v:userDefs>
				<v:ud v:nameU="CTypeTopLeftSnip" v:prompt="" v:val="VT0(0):5"/>
				<v:ud v:nameU="CTypeTopRightSnip" v:prompt="" v:val="VT0(0):5"/>
				<v:ud v:nameU="CTypeBotLeftSnip" v:prompt="" v:val="VT0(0):5"/>
				<v:ud v:nameU="CTypeBotRightSnip" v:prompt="" v:val="VT0(0):5"/>
				<v:ud v:nameU="CornerLockHoriz" v:prompt="" v:val="VT0(0):5"/>
				<v:ud v:nameU="CornerLockVert" v:prompt="" v:val="VT0(0):5"/>
				<v:ud v:nameU="CornerLockDiag" v:prompt="" v:val="VT0(0):5"/>
				<v:ud v:nameU="TopLeftOffset" v:prompt="" v:val="VT0(0.15):1"/>
				<v:ud v:nameU="TopRightOffset" v:prompt="" v:val="VT0(0.15):1"/>
				<v:ud v:nameU="BotLeftOffset" v:prompt="" v:val="VT0(0.15):1"/>
				<v:ud v:nameU="BotRightOffset" v:prompt="" v:val="VT0(0.15):1"/>
				<v:ud v:nameU="visVersion" v:prompt="" v:val="VT0(15):26"/>
			</v:userDefs>
			<v:textBlock v:margins="rect(4,4,4,4)"/>
			<v:textRect cx="54" cy="271.5" width="108" height="72"/>
			<path d="M10.8 307.5 L97.2 307.5 A10.7998 10.7998 -180 0 0 108 296.7 L108 246.3 A10.7998 10.7998 -180 0 0 97.2 235.5
						 L10.8 235.5 A10.7998 10.7998 -180 0 0 0 246.3 L0 296.7 A10.7998 10.7998 -180 0 0 10.8 307.5 Z" class="st1"/>
			<text x="8.6" y="266.1" class="st2" v:langID="1033"><v:paragraph v:horizAlign="1"/><v:tabList/>Homebridge<v:newlineChar/><tspan
						x="17.71" dy="1.2em" class="st3">Accessory</tspan></text>		</g>
		<g id="shape6-25" v:mID="6" v:groupContext="shape" v:layerMember="0" transform="translate(126.75,-252.75)">
			<title>Dynamic connector</title>
			<path d="M5.8 307.5 L6.16 307.5 C39.48 307.55 88.69 308.34 111.85 321.51 C129.88 331.76 132.14 349.51 132.42 364.34 L132.42
						 364.7" class="st4"/>
		</g>
		<g id="shape7-34" v:mID="7" v:groupContext="shape" v:layerMember="0" transform="translate(126.75,-144.75)">
			<title>Dynamic connector.7</title>
			<path d="M6.16 298.5 C24.76 298.5 53.7 298.5 72.3 298.5" class="st6"/>
		</g>
		<g id="shape8-43" v:mID="8" v:groupContext="shape" v:layerMember="0" transform="translate(126.75,-54.75)">
			<title>Dynamic connector.8</title>
			<path d="M5.8 307.5 L6.16 307.5 C39.48 307.45 88.69 306.66 111.85 293.49 C129.88 283.24 132.14 265.49 132.42 250.66 L132.42
						 250.3" class="st7"/>
		</g>
		<g id="shape9-52" v:mID="9" v:groupContext="shape" v:layerMember="0" transform="translate(313.211,-144.75)">
			<title>Dynamic connector.9</title>
			<path d="M5.8 298.5 L6.16 298.5 C24.76 298.5 53.7 298.5 72.3 298.5" class="st9"/>
		</g>
	</g>
</svg>
