<?xml version="1.0" encoding="UTF-8" standalone="no"?>
<!DOCTYPE svg PUBLIC "-//W3C//DTD SVG 1.1//EN" "http://www.w3.org/Graphics/SVG/1.1/DTD/svg11.dtd">
<!-- Generated by Microsoft Visio, SVG Export concept_diagram.svg Page-1 -->
<svg xmlns="http://www.w3.org/2000/svg" xmlns:xlink="http://www.w3.org/1999/xlink" xmlns:ev="http://www.w3.org/2001/xml-events"
		xmlns:v="http://schemas.microsoft.com/visio/2003/SVGExtensions/" width="11in" height="8.5in" viewBox="0 0 792 612"
		xml:space="preserve" color-interpolation-filters="sRGB" class="st9">
	<v:documentProperties v:langID="1033" v:viewMarkup="false">
		<v:userDefs>
			<v:ud v:nameU="msvSubprocessMaster" v:prompt="" v:val="VT4(Rectangle)"/>
			<v:ud v:nameU="msvNoAutoConnect" v:val="VT0(1):26"/>
		</v:userDefs>
	</v:documentProperties>

	<style type="text/css">
	<![CDATA[
		.st1 {fill:url(#grad0-4);stroke:#4f87bb;stroke-width:0.75}
		.st2 {fill:#4f87bb;font-family:Calibri;font-size:0.833336em}
		.st3 {font-size:1em}
		.st4 {marker-end:url(#mrkr5-32);marker-start:url(#mrkr5-30);stroke:#5b9bd5;stroke-linecap:round;stroke-linejoin:round;stroke-width:1}
		.st5 {fill:#5b9bd5;fill-opacity:1;stroke:#5b9bd5;stroke-opacity:1;stroke-width:0.28409090909091}
		.st6 {marker-end:url(#mrkr5-41);marker-start:url(#mrkr5-39);stroke:#5b9bd5;stroke-linecap:round;stroke-linejoin:round;stroke-width:1}
		.st7 {marker-end:url(#mrkr5-50);marker-start:url(#mrkr5-48);stroke:#4672c4;stroke-linecap:round;stroke-linejoin:round;stroke-width:1}
		.st8 {fill:#4672c4;fill-opacity:1;stroke:#4672c4;stroke-opacity:1;stroke-width:0.28409090909091}
		.st9 {fill:none;fill-rule:evenodd;font-size:12px;overflow:visible;stroke-linecap:square;stroke-miterlimit:3}
	]]>
	</style>

	<defs id="Patterns_And_Gradients">
		<linearGradient id="grad0-4" x1="0" y1="0" x2="1" y2="0" gradientTransform="rotate(60 0.5 0.5)">
			<stop offset="0" stop-color="#e9eff7" stop-opacity="1"/>
			<stop offset="0.24" stop-color="#f4f7fb" stop-opacity="1"/>
			<stop offset="0.54" stop-color="#feffff" stop-opacity="1"/>
		</linearGradient>
	</defs>
	<defs id="Markers">
		<g id="lend5">
			<path d="M 2 1 L 0 0 L 1.98117 -0.993387 C 1.67173 -0.364515 1.67301 0.372641 1.98465 1.00043 " style="stroke:none"/>
		</g>
		<marker id="mrkr5-30" class="st5" v:arrowType="5" v:arrowSize="2" v:setback="5.8" refX="5.8" orient="auto"
				markerUnits="strokeWidth" overflow="visible">
			<use xlink:href="#lend5" transform="scale(3.52) "/>
		</marker>
		<marker id="mrkr5-32" class="st5" v:arrowType="5" v:arrowSize="2" v:setback="5.8" refX="-5.8" orient="auto"
				markerUnits="strokeWidth" overflow="visible">
			<use xlink:href="#lend5" transform="scale(-3.52,-3.52) "/>
		</marker>
		<marker id="mrkr5-39" class="st5" v:arrowType="5" v:arrowSize="2" v:setback="6.16" refX="6.16" orient="auto"
				markerUnits="strokeWidth" overflow="visible">
			<use xlink:href="#lend5" transform="scale(3.52) "/>
		</marker>
		<marker id="mrkr5-41" class="st5" v:arrowType="5" v:arrowSize="2" v:setback="6.16" refX="-6.16" orient="auto"
				markerUnits="strokeWidth" overflow="visible">
			<use xlink:href="#lend5" transform="scale(-3.52,-3.52) "/>
		</marker>
		<marker id="mrkr5-48" class="st8" v:arrowType="5" v:arrowSize="2" v:setback="5.8" refX="5.8" orient="auto"
				markerUnits="strokeWidth" overflow="visible">
			<use xlink:href="#lend5" transform="scale(3.52) "/>
		</marker>
		<marker id="mrkr5-50" class="st8" v:arrowType="5" v:arrowSize="2" v:setback="5.8" refX="-5.8" orient="auto"
				markerUnits="strokeWidth" overflow="visible">
			<use xlink:href="#lend5" transform="scale(-3.52,-3.52) "/>
		</marker>
	</defs>
	<g v:mID="0" v:index="1" v:groupContext="foregroundPage">
		<v:userDefs>
			<v:ud v:nameU="msvThemeOrder" v:val="VT0(0):26"/>
		</v:userDefs>
		<title>Page-1</title>
		<v:pageProperties v:drawingScale="1" v:pageScale="1" v:drawingUnits="0" v:shadowOffsetX="9" v:shadowOffsetY="-9"/>
		<v:layer v:name="Connector" v:index="0"/>
		<g id="shape13-1" v:mID="13" v:groupContext="shape" transform="translate(353.538,-270)">
			<title>Round Corner Rectangle.13</title>
			<desc>Firebase</desc>
			<v:userDefs>
				<v:ud v:nameU="CTypeTopLeftSnip" v:prompt="" v:val="VT0(0):5"/>
				<v:ud v:nameU="CTypeTopRightSnip" v:prompt="" v:val="VT0(0):5"/>
				<v:ud v:nameU="CTypeBotLeftSnip" v:prompt="" v:val="VT0(0):5"/>
				<v:ud v:nameU="CTypeBotRightSnip" v:prompt="" v:val="VT0(0):5"/>
				<v:ud v:nameU="CornerLockHoriz" v:prompt="" v:val="VT0(0):5"/>
				<v:ud v:nameU="CornerLockVert" v:prompt="" v:val="VT0(0):5"/>
				<v:ud v:nameU="CornerLockDiag" v:prompt="" v:val="VT0(0):5"/>
				<v:ud v:nameU="TopLeftOffset" v:prompt="" v:val="VT0(0.15):1"/>
				<v:ud v:nameU="TopRightOffset" v:prompt="" v:val="VT0(0.15):1"/>
				<v:ud v:nameU="BotLeftOffset" v:prompt="" v:val="VT0(0.15):1"/>
				<v:ud v:nameU="BotRightOffset" v:prompt="" v:val="VT0(0.15):1"/>
				<v:ud v:nameU="visVersion" v:prompt="" v:val="VT0(15):26"/>
			</v:userDefs>
			<v:textBlock v:margins="rect(4,4,4,4)"/>
			<v:textRect cx="54" cy="576" width="108" height="72"/>
			<path d="M10.8 612 L97.2 612 A10.7998 10.7998 -180 0 0 108 601.2 L108 550.8 A10.7998 10.7998 -180 0 0 97.2 540 L10.8
						 540 A10.7998 10.7998 -180 0 0 0 550.8 L0 601.2 A10.7998 10.7998 -180 0 0 10.8 612 Z" class="st1"/>
			<text x="36.86" y="579" class="st2" v:langID="1033"><v:paragraph v:horizAlign="1"/><v:tabList/>Firebase</text>		</g>
		<g id="shape14-6" v:mID="14" v:groupContext="shape" transform="translate(540,-270)">
			<title>Round Corner Rectangle.14</title>
			<desc>Widget</desc>
			<v:userDefs>
				<v:ud v:nameU="CTypeTopLeftSnip" v:prompt="" v:val="VT0(0):5"/>
				<v:ud v:nameU="CTypeTopRightSnip" v:prompt="" v:val="VT0(0):5"/>
				<v:ud v:nameU="CTypeBotLeftSnip" v:prompt="" v:val="VT0(0):5"/>
				<v:ud v:nameU="CTypeBotRightSnip" v:prompt="" v:val="VT0(0):5"/>
				<v:ud v:nameU="CornerLockHoriz" v:prompt="" v:val="VT0(0):5"/>
				<v:ud v:nameU="CornerLockVert" v:prompt="" v:val="VT0(0):5"/>
				<v:ud v:nameU="CornerLockDiag" v:prompt="" v:val="VT0(0):5"/>
				<v:ud v:nameU="TopLeftOffset" v:prompt="" v:val="VT0(0.15):1"/>
				<v:ud v:nameU="TopRightOffset" v:prompt="" v:val="VT0(0.15):1"/>
				<v:ud v:nameU="BotLeftOffset" v:prompt="" v:val="VT0(0.15):1"/>
				<v:ud v:nameU="BotRightOffset" v:prompt="" v:val="VT0(0.15):1"/>
				<v:ud v:nameU="visVersion" v:prompt="" v:val="VT0(15):26"/>
			</v:userDefs>
			<v:textBlock v:margins="rect(4,4,4,4)"/>
			<v:textRect cx="54" cy="576" width="108" height="72"/>
			<path d="M10.8 612 L97.2 612 A10.7998 10.7998 -180 0 0 108 601.2 L108 550.8 A10.7998 10.7998 -180 0 0 97.2 540 L10.8
						 540 A10.7998 10.7998 -180 0 0 0 550.8 L0 601.2 A10.7998 10.7998 -180 0 0 10.8 612 Z" class="st1"/>
			<text x="39.26" y="579" class="st2" v:langID="1033"><v:paragraph v:horizAlign="1"/><v:tabList/>Widget</text>		</g>
		<g id="shape12-10" v:mID="12" v:groupContext="shape" transform="translate(167.077,-171)">
			<title>Round Corner Rectangle.12</title>
			<desc>Web Interface</desc>
			<v:userDefs>
				<v:ud v:nameU="CTypeTopLeftSnip" v:prompt="" v:val="VT0(0):5"/>
				<v:ud v:nameU="CTypeTopRightSnip" v:prompt="" v:val="VT0(0):5"/>
				<v:ud v:nameU="CTypeBotLeftSnip" v:prompt="" v:val="VT0(0):5"/>
				<v:ud v:nameU="CTypeBotRightSnip" v:prompt="" v:val="VT0(0):5"/>
				<v:ud v:nameU="CornerLockHoriz" v:prompt="" v:val="VT0(0):5"/>
				<v:ud v:nameU="CornerLockVert" v:prompt="" v:val="VT0(0):5"/>
				<v:ud v:nameU="CornerLockDiag" v:prompt="" v:val="VT0(0):5"/>
				<v:ud v:nameU="TopLeftOffset" v:prompt="" v:val="VT0(0.15):1"/>
				<v:ud v:nameU="TopRightOffset" v:prompt="" v:val="VT0(0.15):1"/>
				<v:ud v:nameU="BotLeftOffset" v:prompt="" v:val="VT0(0.15):1"/>
				<v:ud v:nameU="BotRightOffset" v:prompt="" v:val="VT0(0.15):1"/>
				<v:ud v:nameU="visVersion" v:prompt="" v:val="VT0(15):26"/>
			</v:userDefs>
			<v:textBlock v:margins="rect(4,4,4,4)"/>
			<v:textRect cx="54" cy="576" width="108" height="72"/>
			<path d="M10.8 612 L97.2 612 A10.7998 10.7998 -180 0 0 108 601.2 L108 550.8 A10.7998 10.7998 -180 0 0 97.2 540 L10.8
						 540 A10.7998 10.7998 -180 0 0 0 550.8 L0 601.2 A10.7998 10.7998 -180 0 0 10.8 612 Z" class="st1"/>
			<text x="24.99" y="579" class="st2" v:langID="1033"><v:paragraph v:horizAlign="1"/><v:tabList/>Web Interface</text>		</g>
		<g id="shape11-14" v:mID="11" v:groupContext="shape" transform="translate(167.077,-270)">
			<title>Round Corner Rectangle.11</title>
			<desc>Homebridge Platform</desc>
			<v:userDefs>
				<v:ud v:nameU="CTypeTopLeftSnip" v:prompt="" v:val="VT0(0):5"/>
				<v:ud v:nameU="CTypeTopRightSnip" v:prompt="" v:val="VT0(0):5"/>
				<v:ud v:nameU="CTypeBotLeftSnip" v:prompt="" v:val="VT0(0):5"/>
				<v:ud v:nameU="CTypeBotRightSnip" v:prompt="" v:val="VT0(0):5"/>
				<v:ud v:nameU="CornerLockHoriz" v:prompt="" v:val="VT0(0):5"/>
				<v:ud v:nameU="CornerLockVert" v:prompt="" v:val="VT0(0):5"/>
				<v:ud v:nameU="CornerLockDiag" v:prompt="" v:val="VT0(0):5"/>
				<v:ud v:nameU="TopLeftOffset" v:prompt="" v:val="VT0(0.15):1"/>
				<v:ud v:nameU="TopRightOffset" v:prompt="" v:val="VT0(0.15):1"/>
				<v:ud v:nameU="BotLeftOffset" v:prompt="" v:val="VT0(0.15):1"/>
				<v:ud v:nameU="BotRightOffset" v:prompt="" v:val="VT0(0.15):1"/>
				<v:ud v:nameU="visVersion" v:prompt="" v:val="VT0(15):26"/>
			</v:userDefs>
			<v:textBlock v:margins="rect(4,4,4,4)"/>
			<v:textRect cx="54" cy="576" width="108" height="72"/>
			<path d="M10.8 612 L97.2 612 A10.7998 10.7998 -180 0 0 108 601.2 L108 550.8 A10.7998 10.7998 -180 0 0 97.2 540 L10.8
						 540 A10.7998 10.7998 -180 0 0 0 550.8 L0 601.2 A10.7998 10.7998 -180 0 0 10.8 612 Z" class="st1"/>
			<text x="28.78" y="573" class="st2" v:langID="1033"><v:paragraph v:horizAlign="1"/><v:tabList/>Homebridge<v:newlineChar/><tspan
						x="36.3" dy="1.2em" class="st3">Platform</tspan></text>		</g>
		<g id="shape10-19" v:mID="10" v:groupContext="shape" transform="translate(167.077,-369)">
			<title>Round Corner Rectangle</title>
			<desc>Homebridge Accessory</desc>
			<v:userDefs>
				<v:ud v:nameU="CTypeTopLeftSnip" v:prompt="" v:val="VT0(0):5"/>
				<v:ud v:nameU="CTypeTopRightSnip" v:prompt="" v:val="VT0(0):5"/>
				<v:ud v:nameU="CTypeBotLeftSnip" v:prompt="" v:val="VT0(0):5"/>
				<v:ud v:nameU="CTypeBotRightSnip" v:prompt="" v:val="VT0(0):5"/>
				<v:ud v:nameU="CornerLockHoriz" v:prompt="" v:val="VT0(0):5"/>
				<v:ud v:nameU="CornerLockVert" v:prompt="" v:val="VT0(0):5"/>
				<v:ud v:nameU="CornerLockDiag" v:prompt="" v:val="VT0(0):5"/>
				<v:ud v:nameU="TopLeftOffset" v:prompt="" v:val="VT0(0.15):1"/>
				<v:ud v:nameU="TopRightOffset" v:prompt="" v:val="VT0(0.15):1"/>
				<v:ud v:nameU="BotLeftOffset" v:prompt="" v:val="VT0(0.15):1"/>
				<v:ud v:nameU="BotRightOffset" v:prompt="" v:val="VT0(0.15):1"/>
				<v:ud v:nameU="visVersion" v:prompt="" v:val="VT0(15):26"/>
			</v:userDefs>
			<v:textBlock v:margins="rect(4,4,4,4)"/>
			<v:textRect cx="54" cy="576" width="108" height="72"/>
			<path d="M10.8 612 L97.2 612 A10.7998 10.7998 -180 0 0 108 601.2 L108 550.8 A10.7998 10.7998 -180 0 0 97.2 540 L10.8
						 540 A10.7998 10.7998 -180 0 0 0 550.8 L0 601.2 A10.7998 10.7998 -180 0 0 10.8 612 Z" class="st1"/>
			<text x="28.78" y="573" class="st2" v:langID="1033"><v:paragraph v:horizAlign="1"/><v:tabList/>Homebridge<v:newlineChar/><tspan
						x="33.84" dy="1.2em" class="st3">Accessory</tspan></text>		</g>
		<g id="shape6-24" v:mID="6" v:groupContext="shape" v:layerMember="0" transform="translate(275.077,-405)">
			<title>Dynamic connector</title>
			<path d="M5.8 612 L6.16 612 C39.48 612.05 88.69 612.84 111.85 626.01 C129.88 636.26 132.14 654.01 132.42 668.84 L132.42
						 669.2" class="st4"/>
		</g>
		<g id="shape7-33" v:mID="7" v:groupContext="shape" v:layerMember="0" transform="translate(275.077,-297)">
			<title>Dynamic connector.7</title>
			<path d="M6.16 603 C24.76 603 53.7 603 72.3 603" class="st6"/>
		</g>
		<g id="shape8-42" v:mID="8" v:groupContext="shape" v:layerMember="0" transform="translate(275.077,-207)">
			<title>Dynamic connector.8</title>
			<path d="M5.8 612 L6.16 612 C39.48 611.95 88.69 611.16 111.85 597.99 C129.88 587.74 132.14 569.99 132.42 555.16 L132.42
						 554.8" class="st7"/>
		</g>
		<g id="shape9-51" v:mID="9" v:groupContext="shape" v:layerMember="0" transform="translate(461.538,-297)">
			<title>Dynamic connector.9</title>
			<path d="M6.16 603 C24.76 603 53.7 603 72.3 603" class="st6"/>
		</g>
	</g>
</svg>
